<svg width="20" height="20" viewBox="0 0 20 20" fill="none" xmlns="http://www.w3.org/2000/svg">
<path fill-rule="evenodd" clip-rule="evenodd" d="M2.98345 4.74289C2.84714 5.38613 2.77351 6.23522 2.66931 7.45956L2.60118 8.26011C2.47885 9.69756 2.45391 10.1835 2.61143 10.6147C2.76894 11.0459 3.10124 11.4013 4.12135 12.4214L6.41576 14.7158C7.43167 15.7317 8.14133 16.4391 8.74781 16.9018C9.33695 17.3513 9.73967 17.4986 10.1314 17.4986C10.5232 17.4986 10.9259 17.3513 11.5151 16.9018C12.1215 16.4391 12.8312 15.7317 13.8471 14.7158L14.7158 13.8471C15.7317 12.8312 16.4391 12.1215 16.9018 11.515C17.3513 10.9259 17.4986 10.5232 17.4986 10.1314C17.4986 9.73964 17.3513 9.33692 16.9018 8.74777C16.4391 8.14129 15.7317 7.43163 14.7158 6.41572L12.4214 4.12133C11.4013 3.10124 11.0458 2.76894 10.6147 2.61143C10.1835 2.45392 9.69755 2.47885 8.26011 2.60119L7.45955 2.66932C6.23521 2.77352 5.38612 2.84714 4.74288 2.98345C4.12011 3.11542 3.78181 3.2892 3.5355 3.53551C3.28919 3.78181 3.11542 4.12011 2.98345 4.74289ZM1.5147 4.43165C1.67921 3.65533 1.94454 3.00322 2.47388 2.47388C3.00321 1.94455 3.65532 1.67921 4.43164 1.5147C5.17702 1.35675 6.11965 1.27654 7.28304 1.17755L8.1328 1.10523C8.18678 1.10064 8.24004 1.09608 8.29261 1.09157C9.50493 0.987752 10.3479 0.915564 11.1298 1.20122C11.9118 1.48687 12.5097 2.08542 13.3696 2.94624C13.4069 2.98357 13.4447 3.02139 13.483 3.0597L15.8162 5.39292C16.7842 6.36082 17.5643 7.14097 18.0954 7.83707C18.6468 8.55977 19 9.27939 19 10.1314C19 10.9834 18.6468 11.703 18.0954 12.4257C17.5643 13.1218 16.7842 13.902 15.8162 14.8699L14.8699 15.8162C13.902 16.7842 13.1218 17.5643 12.4258 18.0954C11.7031 18.6468 10.9834 19 10.1314 19C9.27943 19 8.55981 18.6469 7.83711 18.0955C7.14102 17.5644 6.36087 16.7842 5.39298 15.8163L3.05973 13.483C3.02142 13.4447 2.9836 13.4069 2.94627 13.3697C2.08543 12.5097 1.48688 11.9118 1.20122 11.1298C0.915563 10.3479 0.987752 9.50494 1.09157 8.29261C1.09608 8.24004 1.10064 8.18677 1.10523 8.13279L1.17755 7.28304C1.27654 6.11966 1.35675 5.17703 1.5147 4.43165Z" fill="black"></path>
<path d="M7.25435 5.83863C7.64523 6.22951 7.64523 6.86325 7.25435 7.25413C6.86347 7.64501 6.22973 7.64501 5.83885 7.25413C5.44798 6.86325 5.44798 6.22951 5.83885 5.83863C6.22973 5.44775 6.86347 5.44775 7.25435 5.83863Z" fill="black"></path>
</svg>