<svg width="20" height="20" viewBox="0 0 20 20" fill="none" xmlns="http://www.w3.org/2000/svg">
<path fill-rule="evenodd" clip-rule="evenodd" d="M1.37514 0.2237C1.08377 -0.0691954 0.611351 -0.0691954 0.319973 0.2237C0.0285961 0.516595 0.0285961 0.991471 0.319973 1.28437L3.09445 4.07329C2.70152 4.37903 2.35123 4.7081 2.04049 5.05288C0.5183 6.74182 0 8.74763 0 10.0521C0 11.3565 0.5183 13.3623 2.04049 15.0513C3.58698 16.7672 6.11297 18.0937 10 18.0937C12.4069 18.0937 14.2919 17.5851 15.7456 16.7904L18.7241 19.7844C19.0155 20.0773 19.4879 20.0773 19.7793 19.7844C20.0706 19.4915 20.0706 19.0166 19.7793 18.7237L1.37514 0.2237ZM14.6275 15.6664L12.2179 13.2443C11.6136 13.6438 10.8626 13.8587 10 13.8587C8.8144 13.8587 7.83961 13.4527 7.16667 12.7195C6.50383 11.9973 6.20655 11.0373 6.20655 10.0521C6.20655 9.25541 6.40091 8.47528 6.82573 7.82401L4.17116 5.15561C3.78998 5.43748 3.46156 5.74115 3.17925 6.05438C1.93013 7.44034 1.52468 9.07883 1.52468 10.0521C1.52468 11.0253 1.93013 12.6638 3.17925 14.0498C4.40408 15.4088 6.49692 16.5876 10 16.5876C11.9472 16.5876 13.4587 16.2234 14.6275 15.6664ZM8.02497 9.0295C7.90293 9.31999 7.83515 9.66376 7.83515 10.0521C7.83515 10.7178 8.03435 11.2525 8.36461 11.6124C8.68478 11.9612 9.19961 12.2244 10 12.2244C10.4113 12.2244 10.7471 12.1549 11.0199 12.04L8.02497 9.0295Z" fill="#201F29"></path>
<path d="M18.4753 10.0521C18.4753 10.973 18.1123 12.4895 17.015 13.8242L18.0891 14.9039C19.5113 13.2468 20 11.3188 20 10.0521C20 8.74763 19.4817 6.74182 17.9595 5.05288C16.413 3.33698 13.887 2.0104 10 2.0104C8.40104 2.0104 7.03239 2.23488 5.86748 2.61859L7.08145 3.83888C7.92459 3.63451 8.89172 3.51652 10 3.51652C13.5031 3.51652 15.5959 4.69538 16.8208 6.05438C18.0699 7.44034 18.4753 9.07883 18.4753 10.0521Z" fill="#201F29"></path>
<path d="M13.7665 10.5588L9.50054 6.27057C9.66246 6.25392 9.82904 6.24548 10 6.24548C11.1856 6.24548 12.1604 6.65143 12.8333 7.38463C13.4962 8.10683 13.7934 9.06682 13.7934 10.0521C13.7934 10.2221 13.7846 10.3914 13.7665 10.5588Z" fill="#201F29"></path>
</svg>